# xmcd
#
# Track frame offsets:
# 177
# 14025
# 27117
# 39742
# 53240
# 65602
# 78977
# 92307
# 107057
# 121885
# 136145
# 148850
# 159782
# 171780
# 186567
# 199102
#
# Disc length: 2835 seconds
#
#
# Revision: 0
# Processed by: cddbd v1.5.1PL0 Copyright (c) Steve Scherf et al.
# Submitted via: FreeRIP 2.941 
#
DISCID=d80b1110
DTITLE=Memphis Minnie - Travellin Blues 
DYEAR=1900
DGENRE=Blues
TTITLE0=Going backk to Texas
TTITLE1=Frisco Town
TTITLE2=Bumble Bee
TTITLE3=She wouldnt give me none
TTITLE4=Im going back home
TTITLE5=Georgia Skin
TTITLE6=Im wild about my stuff
TTITLE7=Botherin that thing
TTITLE8=Garage fire blues
TTITLE9=Can I do it for you pt.1
TTITLE10=Today Today Blues
TTITLE11=I dont want that junk outta you
TTITLE12=Soo cow soo
TTITLE13=Aint no use trying to tell on me
TTITLE14=Keepp it to yourself
TTITLE15=Banana man Blues
EXTD=
EXTT0=1929
EXTT1=1929
EXTT2=1929
EXTT3=1930
EXTT4=1930
EXTT5=1930
EXTT6=1930
EXTT7=1930
EXTT8=1930
EXTT9=1930
EXTT10=1931
EXTT11=1931
EXTT12=1931
EXTT13=1933
EXTT14=1934
EXTT15=1934
PLAYORDER=
